<svg xmlns="http://www.w3.org/2000/svg" xmlns:xlink="http://www.w3.org/1999/xlink" viewBox="0 0 7000 7000">
<defs>
<linearGradient id="g" gradientUnits="userSpaceOnUse" x1="1380" y1="1060" x2="5656" y2="5928">
<stop offset="0" stop-color="#e9d591"/>
<stop offset="1" stop-color="#d8b65f"/>
</linearGradient>
<g id="c"><circle cx="3502" cy="3506" r="1660"/><circle cx="5162" cy="3506" r="1660"/><circle cx="4676" cy="4680" r="1660"/><circle cx="3502" cy="5166" r="1660"/><circle cx="2328" cy="4680" r="1660"/><circle cx="1842" cy="3506" r="1660"/><circle cx="2328" cy="2332" r="1660"/><circle cx="3502" cy="1846" r="1660"/><circle cx="4676" cy="2332" r="1660"/></g>
</defs>

<path d="M6336 4680A1413 1413 0 0 1 4676 6340A1413 1413 0 0 1 2328 6340A1413 1413 0 0 1 668 4680A1413 1413 0 0 1 668 2332A1413 1413 0 0 1 2328 672A1413 1413 0 0 1 4676 672A1413 1413 0 0 1 6336 2332A1413 1413 0 0 1 6336 4680Z" fill="#fff"/>
<use xlink:href="#c" href="#c" fill="url(#g)"/>
<use xlink:href="#c" href="#c" fill="none" stroke="#fff" stroke-width="40"/>
<path d="M3502 3506A1660 1660 0 0 0 3988 4680A1660 1660 0 0 0 3502 3506M3502 3506A1660 1660 0 0 0 3016 4680A1660 1660 0 0 0 3502 3506M3502 3506A1660 1660 0 0 0 2328 3992A1660 1660 0 0 0 3502 3506M3502 3506A1660 1660 0 0 0 2328 3020A1660 1660 0 0 0 3502 3506M3502 3506A1660 1660 0 0 0 3016 2332A1660 1660 0 0 0 3502 3506M3502 3506A1660 1660 0 0 0 3988 2332A1660 1660 0 0 0 3502 3506M3502 3506A1660 1660 0 0 0 4676 3020A1660 1660 0 0 0 3502 3506M3502 3506A1660 1660 0 0 0 4676 3992A1660 1660 0 0 0 3502 3506" fill="none" stroke="#fff" stroke-width="90" stroke-linejoin="round"/>
</svg>